<mxfile host="www.draw.io" modified="2020-02-05T16:30:01.049Z" agent="Mozilla/5.0 (Windows NT 10.0; Win64; x64) AppleWebKit/537.36 (KHTML, like Gecko) Chrome/79.0.3945.130 Safari/537.36" etag="uzcs6IEcXpp1PRJ_1YKY" version="12.6.5" type="github">
  <diagram name="Page-1" id="64c3da0e-402f-94eb-ee01-a36477274f13">
    <mxGraphModel dx="2031" dy="1089" grid="1" gridSize="10" guides="1" tooltips="1" connect="1" arrows="1" fold="1" page="1" pageScale="1" pageWidth="1169" pageHeight="826" background="#ffffff" math="0" shadow="0">
      <root>
        <mxCell id="0"/>
        <mxCell id="1" parent="0"/>
        <mxCell id="2" value="Back Pain (Plan)&#xa;Sleep (Plan)" style="whiteSpace=wrap;rounded=1;shadow=1;fillColor=#10739E;strokeColor=none;fontColor=#FFFFFF;fontStyle=1;fontSize=24" parent="1" vertex="1">
          <mxGeometry x="1220" y="20" width="340" height="90" as="geometry"/>
        </mxCell>
        <mxCell id="3" value="Complete Kit" style="whiteSpace=wrap;rounded=1;fillColor=#F2931E;strokeColor=none;shadow=1;fontColor=#FFFFFF;fontStyle=1;fontSize=14" parent="1" vertex="1">
          <mxGeometry x="690" y="179.9999999999998" width="140" height="60" as="geometry"/>
        </mxCell>
        <mxCell id="4" value="Complete Kit" style="whiteSpace=wrap;rounded=1;fillColor=#F2931E;strokeColor=none;shadow=1;fontColor=#FFFFFF;fontStyle=1;fontSize=14" parent="1" vertex="1">
          <mxGeometry x="1060" y="179.9999999999998" width="140" height="60" as="geometry"/>
        </mxCell>
        <mxCell id="6" value="kit" style="whiteSpace=wrap;rounded=1;fillColor=#F2931E;strokeColor=none;shadow=1;fontColor=#FFFFFF;fontStyle=1;fontSize=14" parent="1" vertex="1">
          <mxGeometry x="1430" y="179.9999999999998" width="140" height="60" as="geometry"/>
        </mxCell>
        <mxCell id="10" value="30 Day Supplement Pack" style="whiteSpace=wrap;rounded=1;fillColor=#12AAB5;strokeColor=none;shadow=1;fontColor=#FFFFFF;fontStyle=1;fontSize=13;" parent="1" vertex="1">
          <mxGeometry x="600" y="310.0000000000001" width="120" height="60" as="geometry"/>
        </mxCell>
        <mxCell id="12" value="Sleep Routine Tips" style="whiteSpace=wrap;rounded=1;fillColor=#12AAB5;strokeColor=none;shadow=1;fontColor=#FFFFFF;fontStyle=1;fontSize=14;" parent="1" vertex="1">
          <mxGeometry x="800" y="310.0000000000001" width="120" height="60" as="geometry"/>
        </mxCell>
        <mxCell id="23" value="Valerian" style="whiteSpace=wrap;rounded=1;fillColor=#999999;strokeColor=none;shadow=1;fontColor=#FFFFFF;fontStyle=0" parent="1" vertex="1">
          <mxGeometry x="600" y="410.0000000000001" width="120" height="60" as="geometry"/>
        </mxCell>
        <mxCell id="24" value="Lemon Balm" style="whiteSpace=wrap;rounded=1;fillColor=#999999;strokeColor=none;shadow=1;fontColor=#FFFFFF;fontStyle=0" parent="1" vertex="1">
          <mxGeometry x="600.0000000000001" y="490.0000000000001" width="120" height="60" as="geometry"/>
        </mxCell>
        <mxCell id="38" value="Anti-Snoring Nasal Strips" style="whiteSpace=wrap;rounded=1;fillColor=#999999;strokeColor=none;shadow=1;fontColor=#FFFFFF;fontStyle=0" parent="1" vertex="1">
          <mxGeometry x="799.9999999999995" y="410.0000000000001" width="120" height="60" as="geometry"/>
        </mxCell>
        <mxCell id="39" value="Sleep Habits Guide" style="whiteSpace=wrap;rounded=1;fillColor=#999999;strokeColor=none;shadow=1;fontColor=#FFFFFF;fontStyle=0" parent="1" vertex="1">
          <mxGeometry x="799.9999999999998" y="490.0000000000001" width="120" height="60" as="geometry"/>
        </mxCell>
        <mxCell id="43" value="Lifestyle Adjustments" style="whiteSpace=wrap;rounded=1;fillColor=#12AAB5;strokeColor=none;shadow=1;fontColor=#FFFFFF;fontSize=13;fontStyle=1" parent="1" vertex="1">
          <mxGeometry x="969.9999999999998" y="310.0000000000001" width="120" height="60" as="geometry"/>
        </mxCell>
        <mxCell id="44" value="Flare Relief (As Needed)" style="whiteSpace=wrap;rounded=1;fillColor=#12AAB5;strokeColor=none;shadow=1;fontColor=#FFFFFF;fontStyle=1;fontSize=14;" parent="1" vertex="1">
          <mxGeometry x="1169.9999999999998" y="310.0000000000001" width="120" height="60" as="geometry"/>
        </mxCell>
        <mxCell id="45" value="Anti-Inflammatory Diet Guide" style="whiteSpace=wrap;rounded=1;fillColor=#999999;strokeColor=none;shadow=1;fontColor=#FFFFFF;fontStyle=0" parent="1" vertex="1">
          <mxGeometry x="969.9999999999998" y="410.0000000000001" width="120" height="60" as="geometry"/>
        </mxCell>
        <mxCell id="46" value="Posture Improvement Exercise Video" style="whiteSpace=wrap;rounded=1;fillColor=#999999;strokeColor=none;shadow=1;fontColor=#FFFFFF;fontStyle=0" parent="1" vertex="1">
          <mxGeometry x="969.9999999999999" y="490.0000000000001" width="120" height="60" as="geometry"/>
        </mxCell>
        <mxCell id="47" value="Office Ergonomics Guide" style="whiteSpace=wrap;rounded=1;fillColor=#999999;strokeColor=none;shadow=1;fontColor=#FFFFFF;fontStyle=0" parent="1" vertex="1">
          <mxGeometry x="969.9999999999998" y="570.0000000000001" width="120" height="60" as="geometry"/>
        </mxCell>
        <mxCell id="48" value="Posture Correctors" style="whiteSpace=wrap;rounded=1;fillColor=#999999;strokeColor=none;shadow=1;fontColor=#FFFFFF;fontStyle=0" parent="1" vertex="1">
          <mxGeometry x="970" y="650.0000000000001" width="120" height="60" as="geometry"/>
        </mxCell>
        <mxCell id="50" value="Capsicum" style="whiteSpace=wrap;rounded=1;fillColor=#999999;strokeColor=none;shadow=1;fontColor=#FFFFFF;fontStyle=0" parent="1" vertex="1">
          <mxGeometry x="1169.9999999999993" y="410.0000000000001" width="120" height="60" as="geometry"/>
        </mxCell>
        <mxCell id="103" value="" style="edgeStyle=elbowEdgeStyle;elbow=vertical;rounded=0;fontColor=#000000;endArrow=none;endFill=0;strokeWidth=8;strokeColor=#23445D;" parent="1" source="3" target="10" edge="1">
          <mxGeometry width="100" height="100" relative="1" as="geometry">
            <mxPoint x="550" y="300" as="sourcePoint"/>
            <mxPoint x="650" y="200" as="targetPoint"/>
          </mxGeometry>
        </mxCell>
        <mxCell id="104" value="" style="edgeStyle=elbowEdgeStyle;elbow=vertical;rounded=0;fontColor=#000000;endArrow=none;endFill=0;strokeWidth=8;strokeColor=#23445D;" parent="1" source="3" target="12" edge="1">
          <mxGeometry width="100" height="100" relative="1" as="geometry">
            <mxPoint x="890" y="300" as="sourcePoint"/>
            <mxPoint x="990" y="200" as="targetPoint"/>
          </mxGeometry>
        </mxCell>
        <mxCell id="105" value="" style="edgeStyle=elbowEdgeStyle;elbow=horizontal;rounded=0;fontColor=#000000;endArrow=none;endFill=0;strokeWidth=8;strokeColor=#23445D;" parent="1" source="10" target="23" edge="1">
          <mxGeometry width="100" height="100" relative="1" as="geometry">
            <mxPoint x="540" y="490" as="sourcePoint"/>
            <mxPoint x="640" y="390" as="targetPoint"/>
            <Array as="points">
              <mxPoint x="580" y="390"/>
            </Array>
          </mxGeometry>
        </mxCell>
        <mxCell id="106" value="" style="edgeStyle=elbowEdgeStyle;elbow=horizontal;rounded=0;fontColor=#000000;endArrow=none;endFill=0;strokeWidth=8;strokeColor=#23445D;" parent="1" source="10" target="24" edge="1">
          <mxGeometry width="100" height="100" relative="1" as="geometry">
            <mxPoint x="610" y="350" as="sourcePoint"/>
            <mxPoint x="610" y="450" as="targetPoint"/>
            <Array as="points">
              <mxPoint x="580" y="410"/>
            </Array>
          </mxGeometry>
        </mxCell>
        <mxCell id="111" value="" style="edgeStyle=elbowEdgeStyle;elbow=horizontal;rounded=0;fontColor=#000000;endArrow=none;endFill=0;strokeWidth=8;strokeColor=#23445D;" parent="1" target="38" edge="1">
          <mxGeometry width="100" height="100" relative="1" as="geometry">
            <mxPoint x="790" y="340.0000000000004" as="sourcePoint"/>
            <mxPoint x="790" y="440.0000000000004" as="targetPoint"/>
            <Array as="points">
              <mxPoint x="780" y="390"/>
            </Array>
          </mxGeometry>
        </mxCell>
        <mxCell id="112" value="" style="edgeStyle=elbowEdgeStyle;elbow=horizontal;rounded=0;fontColor=#000000;endArrow=none;endFill=0;strokeWidth=8;strokeColor=#23445D;" parent="1" source="12" target="39" edge="1">
          <mxGeometry width="100" height="100" relative="1" as="geometry">
            <mxPoint x="790" y="340.0000000000004" as="sourcePoint"/>
            <mxPoint x="790" y="520.0000000000005" as="targetPoint"/>
            <Array as="points">
              <mxPoint x="780" y="430"/>
            </Array>
          </mxGeometry>
        </mxCell>
        <mxCell id="116" value="" style="edgeStyle=elbowEdgeStyle;elbow=vertical;rounded=0;fontColor=#000000;endArrow=none;endFill=0;strokeWidth=8;strokeColor=#23445D;" parent="1" source="4" target="43" edge="1">
          <mxGeometry width="100" height="100" relative="1" as="geometry">
            <mxPoint x="770" y="249.99999999999977" as="sourcePoint"/>
            <mxPoint x="670" y="320" as="targetPoint"/>
          </mxGeometry>
        </mxCell>
        <mxCell id="117" value="" style="edgeStyle=elbowEdgeStyle;elbow=vertical;rounded=0;fontColor=#000000;endArrow=none;endFill=0;strokeWidth=8;strokeColor=#23445D;" parent="1" source="4" target="44" edge="1">
          <mxGeometry width="100" height="100" relative="1" as="geometry">
            <mxPoint x="770" y="249.99999999999977" as="sourcePoint"/>
            <mxPoint x="870" y="320" as="targetPoint"/>
          </mxGeometry>
        </mxCell>
        <mxCell id="118" value="" style="edgeStyle=elbowEdgeStyle;elbow=horizontal;rounded=0;fontColor=#000000;endArrow=none;endFill=0;strokeWidth=8;strokeColor=#23445D;" parent="1" source="43" target="45" edge="1">
          <mxGeometry width="100" height="100" relative="1" as="geometry">
            <mxPoint x="950" y="340.00000000000045" as="sourcePoint"/>
            <mxPoint x="959.9999999999995" y="440" as="targetPoint"/>
            <Array as="points">
              <mxPoint x="950" y="390"/>
            </Array>
          </mxGeometry>
        </mxCell>
        <mxCell id="119" value="" style="edgeStyle=elbowEdgeStyle;elbow=horizontal;rounded=0;fontColor=#000000;endArrow=none;endFill=0;strokeWidth=8;strokeColor=#23445D;" parent="1" source="43" target="46" edge="1">
          <mxGeometry width="100" height="100" relative="1" as="geometry">
            <mxPoint x="960" y="340" as="sourcePoint"/>
            <mxPoint x="959.9999999999998" y="520" as="targetPoint"/>
            <Array as="points">
              <mxPoint x="950" y="430"/>
            </Array>
          </mxGeometry>
        </mxCell>
        <mxCell id="120" value="" style="edgeStyle=elbowEdgeStyle;elbow=horizontal;rounded=0;fontColor=#000000;endArrow=none;endFill=0;strokeWidth=8;strokeColor=#23445D;" parent="1" source="43" edge="1">
          <mxGeometry width="100" height="100" relative="1" as="geometry">
            <mxPoint x="960" y="340" as="sourcePoint"/>
            <mxPoint x="960" y="680" as="targetPoint"/>
            <Array as="points">
              <mxPoint x="950" y="560"/>
            </Array>
          </mxGeometry>
        </mxCell>
        <mxCell id="121" value="" style="edgeStyle=elbowEdgeStyle;elbow=horizontal;rounded=0;fontColor=#000000;endArrow=none;endFill=0;strokeWidth=8;strokeColor=#23445D;" parent="1" source="43" target="48" edge="1">
          <mxGeometry width="100" height="100" relative="1" as="geometry">
            <mxPoint x="960" y="340" as="sourcePoint"/>
            <mxPoint x="960" y="680" as="targetPoint"/>
            <Array as="points">
              <mxPoint x="950" y="510"/>
            </Array>
          </mxGeometry>
        </mxCell>
        <mxCell id="122" value="" style="edgeStyle=elbowEdgeStyle;elbow=horizontal;rounded=0;fontColor=#000000;endArrow=none;endFill=0;strokeWidth=8;strokeColor=#23445D;" parent="1" source="43" target="47" edge="1">
          <mxGeometry width="100" height="100" relative="1" as="geometry">
            <mxPoint x="960" y="340" as="sourcePoint"/>
            <mxPoint x="959.9999999999998" y="600" as="targetPoint"/>
            <Array as="points">
              <mxPoint x="950" y="480"/>
            </Array>
          </mxGeometry>
        </mxCell>
        <mxCell id="123" value="" style="edgeStyle=elbowEdgeStyle;elbow=horizontal;rounded=0;fontColor=#000000;endArrow=none;endFill=0;strokeWidth=8;strokeColor=#23445D;" parent="1" source="44" target="50" edge="1">
          <mxGeometry width="100" height="100" relative="1" as="geometry">
            <mxPoint x="1140" y="340.00000000000045" as="sourcePoint"/>
            <mxPoint x="1149.9999999999995" y="440" as="targetPoint"/>
            <Array as="points">
              <mxPoint x="1150" y="390"/>
            </Array>
          </mxGeometry>
        </mxCell>
        <mxCell id="124" value="" style="edgeStyle=elbowEdgeStyle;elbow=horizontal;rounded=0;fontColor=#000000;endArrow=none;endFill=0;strokeWidth=8;strokeColor=#23445D;" parent="1" source="44" edge="1">
          <mxGeometry width="100" height="100" relative="1" as="geometry">
            <mxPoint x="1150" y="340" as="sourcePoint"/>
            <mxPoint x="1160" y="440" as="targetPoint"/>
            <Array as="points">
              <mxPoint x="1150" y="430"/>
            </Array>
          </mxGeometry>
        </mxCell>
        <mxCell id="125" value="" style="edgeStyle=elbowEdgeStyle;elbow=horizontal;rounded=0;fontColor=#000000;endArrow=none;endFill=0;strokeWidth=8;strokeColor=#23445D;" parent="1" source="44" edge="1">
          <mxGeometry width="100" height="100" relative="1" as="geometry">
            <mxPoint x="1150" y="340" as="sourcePoint"/>
            <mxPoint x="1150" y="440" as="targetPoint"/>
            <Array as="points">
              <mxPoint x="1150" y="550"/>
            </Array>
          </mxGeometry>
        </mxCell>
        <mxCell id="133" value="Solution" style="whiteSpace=wrap;rounded=1;fillColor=#12AAB5;strokeColor=none;shadow=1;fontColor=#FFFFFF;fontStyle=1;fontSize=14;" parent="1" vertex="1">
          <mxGeometry x="1339.9999999999998" y="310.0000000000001" width="120" height="60" as="geometry"/>
        </mxCell>
        <mxCell id="134" value="Solution" style="whiteSpace=wrap;rounded=1;fillColor=#12AAB5;strokeColor=none;shadow=1;fontColor=#FFFFFF;fontStyle=1;fontSize=14;" parent="1" vertex="1">
          <mxGeometry x="1539.9999999999998" y="310.0000000000001" width="120" height="60" as="geometry"/>
        </mxCell>
        <mxCell id="135" value="Product" style="whiteSpace=wrap;rounded=1;fillColor=#999999;strokeColor=none;shadow=1;fontColor=#FFFFFF;fontStyle=0" parent="1" vertex="1">
          <mxGeometry x="1339.9999999999998" y="410.0000000000001" width="120" height="60" as="geometry"/>
        </mxCell>
        <mxCell id="136" value="Product" style="whiteSpace=wrap;rounded=1;fillColor=#999999;strokeColor=none;shadow=1;fontColor=#FFFFFF;fontStyle=0" parent="1" vertex="1">
          <mxGeometry x="1340" y="490.0000000000001" width="120" height="60" as="geometry"/>
        </mxCell>
        <mxCell id="137" value="Product" style="whiteSpace=wrap;rounded=1;fillColor=#999999;strokeColor=none;shadow=1;fontColor=#FFFFFF;fontStyle=0" parent="1" vertex="1">
          <mxGeometry x="1339.9999999999998" y="570.0000000000001" width="120" height="60" as="geometry"/>
        </mxCell>
        <mxCell id="138" value="Product" style="whiteSpace=wrap;rounded=1;fillColor=#999999;strokeColor=none;shadow=1;fontColor=#FFFFFF;fontStyle=0" parent="1" vertex="1">
          <mxGeometry x="1340" y="650.0000000000001" width="120" height="60" as="geometry"/>
        </mxCell>
        <mxCell id="139" value="Product" style="whiteSpace=wrap;rounded=1;fillColor=#999999;strokeColor=none;shadow=1;fontColor=#FFFFFF;fontStyle=0" parent="1" vertex="1">
          <mxGeometry x="1340" y="730.0000000000001" width="120" height="60" as="geometry"/>
        </mxCell>
        <mxCell id="140" value="Product" style="whiteSpace=wrap;rounded=1;fillColor=#999999;strokeColor=none;shadow=1;fontColor=#FFFFFF;fontStyle=0" parent="1" vertex="1">
          <mxGeometry x="1539.9999999999993" y="410.0000000000001" width="120" height="60" as="geometry"/>
        </mxCell>
        <mxCell id="141" value="Product" style="whiteSpace=wrap;rounded=1;fillColor=#999999;strokeColor=none;shadow=1;fontColor=#FFFFFF;fontStyle=0" parent="1" vertex="1">
          <mxGeometry x="1539.9999999999995" y="490.0000000000001" width="120" height="60" as="geometry"/>
        </mxCell>
        <mxCell id="142" value="Product" style="whiteSpace=wrap;rounded=1;fillColor=#999999;strokeColor=none;shadow=1;fontColor=#FFFFFF;fontStyle=0" parent="1" vertex="1">
          <mxGeometry x="1539.9999999999995" y="570.0000000000001" width="120" height="60" as="geometry"/>
        </mxCell>
        <mxCell id="143" value="Product" style="whiteSpace=wrap;rounded=1;fillColor=#999999;strokeColor=none;shadow=1;fontColor=#FFFFFF;fontStyle=0" parent="1" vertex="1">
          <mxGeometry x="1539.9999999999995" y="650.0000000000001" width="120" height="60" as="geometry"/>
        </mxCell>
        <mxCell id="144" value="Product" style="whiteSpace=wrap;rounded=1;fillColor=#999999;strokeColor=none;shadow=1;fontColor=#FFFFFF;fontStyle=0" parent="1" vertex="1">
          <mxGeometry x="1539.9999999999998" y="730.0000000000001" width="120" height="60" as="geometry"/>
        </mxCell>
        <mxCell id="145" value="" style="edgeStyle=elbowEdgeStyle;elbow=horizontal;rounded=0;fontColor=#000000;endArrow=none;endFill=0;strokeWidth=8;strokeColor=#23445D;" parent="1" source="133" target="135" edge="1">
          <mxGeometry width="100" height="100" relative="1" as="geometry">
            <mxPoint x="1320" y="340.00000000000045" as="sourcePoint"/>
            <mxPoint x="1329.9999999999995" y="440" as="targetPoint"/>
            <Array as="points">
              <mxPoint x="1320" y="390"/>
            </Array>
          </mxGeometry>
        </mxCell>
        <mxCell id="146" value="" style="edgeStyle=elbowEdgeStyle;elbow=horizontal;rounded=0;fontColor=#000000;endArrow=none;endFill=0;strokeWidth=8;strokeColor=#23445D;" parent="1" source="133" target="136" edge="1">
          <mxGeometry width="100" height="100" relative="1" as="geometry">
            <mxPoint x="1330" y="340" as="sourcePoint"/>
            <mxPoint x="1329.9999999999998" y="520" as="targetPoint"/>
            <Array as="points">
              <mxPoint x="1320" y="430"/>
            </Array>
          </mxGeometry>
        </mxCell>
        <mxCell id="147" value="" style="edgeStyle=elbowEdgeStyle;elbow=horizontal;rounded=0;fontColor=#000000;endArrow=none;endFill=0;strokeWidth=8;strokeColor=#23445D;" parent="1" source="133" target="139" edge="1">
          <mxGeometry width="100" height="100" relative="1" as="geometry">
            <mxPoint x="1330" y="340" as="sourcePoint"/>
            <mxPoint x="1330" y="760" as="targetPoint"/>
            <Array as="points">
              <mxPoint x="1320" y="560"/>
            </Array>
          </mxGeometry>
        </mxCell>
        <mxCell id="148" value="" style="edgeStyle=elbowEdgeStyle;elbow=horizontal;rounded=0;fontColor=#000000;endArrow=none;endFill=0;strokeWidth=8;strokeColor=#23445D;" parent="1" source="133" target="138" edge="1">
          <mxGeometry width="100" height="100" relative="1" as="geometry">
            <mxPoint x="1330" y="340" as="sourcePoint"/>
            <mxPoint x="1330" y="680" as="targetPoint"/>
            <Array as="points">
              <mxPoint x="1320" y="510"/>
            </Array>
          </mxGeometry>
        </mxCell>
        <mxCell id="149" value="" style="edgeStyle=elbowEdgeStyle;elbow=horizontal;rounded=0;fontColor=#000000;endArrow=none;endFill=0;strokeWidth=8;strokeColor=#23445D;" parent="1" source="133" target="137" edge="1">
          <mxGeometry width="100" height="100" relative="1" as="geometry">
            <mxPoint x="1330" y="340" as="sourcePoint"/>
            <mxPoint x="1329.9999999999998" y="600" as="targetPoint"/>
            <Array as="points">
              <mxPoint x="1320" y="480"/>
            </Array>
          </mxGeometry>
        </mxCell>
        <mxCell id="150" value="" style="edgeStyle=elbowEdgeStyle;elbow=horizontal;rounded=0;fontColor=#000000;endArrow=none;endFill=0;strokeWidth=8;strokeColor=#23445D;" parent="1" source="134" target="140" edge="1">
          <mxGeometry width="100" height="100" relative="1" as="geometry">
            <mxPoint x="1510" y="340.00000000000045" as="sourcePoint"/>
            <mxPoint x="1519.9999999999995" y="440" as="targetPoint"/>
            <Array as="points">
              <mxPoint x="1520" y="390"/>
            </Array>
          </mxGeometry>
        </mxCell>
        <mxCell id="151" value="" style="edgeStyle=elbowEdgeStyle;elbow=horizontal;rounded=0;fontColor=#000000;endArrow=none;endFill=0;strokeWidth=8;strokeColor=#23445D;" parent="1" source="134" target="141" edge="1">
          <mxGeometry width="100" height="100" relative="1" as="geometry">
            <mxPoint x="1520" y="340" as="sourcePoint"/>
            <mxPoint x="1519.9999999999998" y="520" as="targetPoint"/>
            <Array as="points">
              <mxPoint x="1520" y="430"/>
            </Array>
          </mxGeometry>
        </mxCell>
        <mxCell id="152" value="" style="edgeStyle=elbowEdgeStyle;elbow=horizontal;rounded=0;fontColor=#000000;endArrow=none;endFill=0;strokeWidth=8;strokeColor=#23445D;" parent="1" source="134" target="144" edge="1">
          <mxGeometry width="100" height="100" relative="1" as="geometry">
            <mxPoint x="1520" y="340" as="sourcePoint"/>
            <mxPoint x="1520" y="760" as="targetPoint"/>
            <Array as="points">
              <mxPoint x="1520" y="550"/>
            </Array>
          </mxGeometry>
        </mxCell>
        <mxCell id="153" value="" style="edgeStyle=elbowEdgeStyle;elbow=horizontal;rounded=0;fontColor=#000000;endArrow=none;endFill=0;strokeWidth=8;strokeColor=#23445D;" parent="1" source="134" target="143" edge="1">
          <mxGeometry width="100" height="100" relative="1" as="geometry">
            <mxPoint x="1520" y="340" as="sourcePoint"/>
            <mxPoint x="1520" y="680" as="targetPoint"/>
            <Array as="points">
              <mxPoint x="1520" y="510"/>
            </Array>
          </mxGeometry>
        </mxCell>
        <mxCell id="154" value="" style="edgeStyle=elbowEdgeStyle;elbow=horizontal;rounded=0;fontColor=#000000;endArrow=none;endFill=0;strokeWidth=8;strokeColor=#23445D;" parent="1" source="134" target="142" edge="1">
          <mxGeometry width="100" height="100" relative="1" as="geometry">
            <mxPoint x="1520" y="340" as="sourcePoint"/>
            <mxPoint x="1519.9999999999998" y="600" as="targetPoint"/>
            <Array as="points">
              <mxPoint x="1520" y="480"/>
            </Array>
          </mxGeometry>
        </mxCell>
        <mxCell id="221" value="" style="edgeStyle=elbowEdgeStyle;elbow=vertical;rounded=0;fontColor=#000000;endArrow=none;endFill=0;strokeWidth=8;strokeColor=#23445D;" parent="1" source="6" target="133" edge="1">
          <mxGeometry width="100" height="100" relative="1" as="geometry">
            <mxPoint x="1310" y="280" as="sourcePoint"/>
            <mxPoint x="1410" y="180" as="targetPoint"/>
          </mxGeometry>
        </mxCell>
        <mxCell id="222" value="" style="edgeStyle=elbowEdgeStyle;elbow=vertical;rounded=0;fontColor=#000000;endArrow=none;endFill=0;strokeWidth=8;strokeColor=#23445D;" parent="1" source="6" target="134" edge="1">
          <mxGeometry width="100" height="100" relative="1" as="geometry">
            <mxPoint x="1560" y="290" as="sourcePoint"/>
            <mxPoint x="1660" y="190" as="targetPoint"/>
          </mxGeometry>
        </mxCell>
        <mxCell id="229" value="" style="edgeStyle=elbowEdgeStyle;elbow=vertical;rounded=0;fontColor=#000000;endArrow=none;endFill=0;strokeWidth=8;strokeColor=#23445D;entryX=1;entryY=0;entryDx=0;entryDy=0;" parent="1" source="2" target="3" edge="1">
          <mxGeometry width="100" height="100" relative="1" as="geometry">
            <mxPoint x="540" y="140" as="sourcePoint"/>
            <mxPoint x="640" y="40" as="targetPoint"/>
          </mxGeometry>
        </mxCell>
        <mxCell id="230" value="" style="edgeStyle=elbowEdgeStyle;elbow=vertical;rounded=0;fontColor=#000000;endArrow=none;endFill=0;strokeWidth=8;strokeColor=#23445D;" parent="1" source="2" target="4" edge="1">
          <mxGeometry width="100" height="100" relative="1" as="geometry">
            <mxPoint x="550" y="150" as="sourcePoint"/>
            <mxPoint x="650" y="50" as="targetPoint"/>
          </mxGeometry>
        </mxCell>
        <mxCell id="231" value="" style="edgeStyle=elbowEdgeStyle;elbow=vertical;rounded=0;fontColor=#000000;endArrow=none;endFill=0;strokeWidth=8;strokeColor=#23445D;" parent="1" source="2" target="6" edge="1">
          <mxGeometry width="100" height="100" relative="1" as="geometry">
            <mxPoint x="560" y="160" as="sourcePoint"/>
            <mxPoint x="660" y="60" as="targetPoint"/>
          </mxGeometry>
        </mxCell>
        <mxCell id="8cmh6g_K8rKezBwlUr-a-234" value="Solution Group&#xa;(30 day suplement pack)" style="whiteSpace=wrap;rounded=1;fillColor=#76608a;strokeColor=#432D57;shadow=1;fontColor=#ffffff;fontStyle=1;fontSize=14;" vertex="1" parent="1">
          <mxGeometry x="1810" y="262" width="130" height="58" as="geometry"/>
        </mxCell>
        <mxCell id="8cmh6g_K8rKezBwlUr-a-235" value="Solution" style="whiteSpace=wrap;rounded=1;fillColor=#12AAB5;strokeColor=none;shadow=1;fontColor=#FFFFFF;fontStyle=1;fontSize=14;" vertex="1" parent="1">
          <mxGeometry x="1729.9999999999998" y="392.0000000000001" width="120" height="58" as="geometry"/>
        </mxCell>
        <mxCell id="8cmh6g_K8rKezBwlUr-a-236" value="Solution" style="whiteSpace=wrap;rounded=1;fillColor=#12AAB5;strokeColor=none;shadow=1;fontColor=#FFFFFF;fontStyle=1;fontSize=14;" vertex="1" parent="1">
          <mxGeometry x="1929.9999999999998" y="392.0000000000001" width="120" height="58" as="geometry"/>
        </mxCell>
        <mxCell id="8cmh6g_K8rKezBwlUr-a-237" value="Product" style="whiteSpace=wrap;rounded=1;fillColor=#999999;strokeColor=none;shadow=1;fontColor=#FFFFFF;fontStyle=0" vertex="1" parent="1">
          <mxGeometry x="1729.9999999999998" y="492.0000000000001" width="120" height="58" as="geometry"/>
        </mxCell>
        <mxCell id="8cmh6g_K8rKezBwlUr-a-238" value="Product" style="whiteSpace=wrap;rounded=1;fillColor=#999999;strokeColor=none;shadow=1;fontColor=#FFFFFF;fontStyle=0" vertex="1" parent="1">
          <mxGeometry x="1730" y="572.0000000000001" width="120" height="58" as="geometry"/>
        </mxCell>
        <mxCell id="8cmh6g_K8rKezBwlUr-a-239" value="Product" style="whiteSpace=wrap;rounded=1;fillColor=#999999;strokeColor=none;shadow=1;fontColor=#FFFFFF;fontStyle=0" vertex="1" parent="1">
          <mxGeometry x="1729.9999999999998" y="652.0000000000001" width="120" height="58" as="geometry"/>
        </mxCell>
        <mxCell id="8cmh6g_K8rKezBwlUr-a-240" value="Product" style="whiteSpace=wrap;rounded=1;fillColor=#999999;strokeColor=none;shadow=1;fontColor=#FFFFFF;fontStyle=0" vertex="1" parent="1">
          <mxGeometry x="1730" y="732.0000000000001" width="120" height="58" as="geometry"/>
        </mxCell>
        <mxCell id="8cmh6g_K8rKezBwlUr-a-241" value="Product" style="whiteSpace=wrap;rounded=1;fillColor=#999999;strokeColor=none;shadow=1;fontColor=#FFFFFF;fontStyle=0" vertex="1" parent="1">
          <mxGeometry x="1730" y="814.0000000000001" width="120" height="58" as="geometry"/>
        </mxCell>
        <mxCell id="8cmh6g_K8rKezBwlUr-a-242" value="Product" style="whiteSpace=wrap;rounded=1;fillColor=#999999;strokeColor=none;shadow=1;fontColor=#FFFFFF;fontStyle=0" vertex="1" parent="1">
          <mxGeometry x="1929.9999999999993" y="492.0000000000001" width="120" height="58" as="geometry"/>
        </mxCell>
        <mxCell id="8cmh6g_K8rKezBwlUr-a-243" value="Product" style="whiteSpace=wrap;rounded=1;fillColor=#999999;strokeColor=none;shadow=1;fontColor=#FFFFFF;fontStyle=0" vertex="1" parent="1">
          <mxGeometry x="1929.9999999999995" y="572.0000000000001" width="120" height="58" as="geometry"/>
        </mxCell>
        <mxCell id="8cmh6g_K8rKezBwlUr-a-244" value="Product" style="whiteSpace=wrap;rounded=1;fillColor=#999999;strokeColor=none;shadow=1;fontColor=#FFFFFF;fontStyle=0" vertex="1" parent="1">
          <mxGeometry x="1929.9999999999995" y="652.0000000000001" width="120" height="58" as="geometry"/>
        </mxCell>
        <mxCell id="8cmh6g_K8rKezBwlUr-a-245" value="Product" style="whiteSpace=wrap;rounded=1;fillColor=#999999;strokeColor=none;shadow=1;fontColor=#FFFFFF;fontStyle=0" vertex="1" parent="1">
          <mxGeometry x="1929.9999999999995" y="732.0000000000001" width="120" height="58" as="geometry"/>
        </mxCell>
        <mxCell id="8cmh6g_K8rKezBwlUr-a-246" value="Product" style="whiteSpace=wrap;rounded=1;fillColor=#999999;strokeColor=none;shadow=1;fontColor=#FFFFFF;fontStyle=0" vertex="1" parent="1">
          <mxGeometry x="1929.9999999999998" y="814.0000000000001" width="120" height="58" as="geometry"/>
        </mxCell>
        <mxCell id="8cmh6g_K8rKezBwlUr-a-247" value="" style="edgeStyle=elbowEdgeStyle;elbow=horizontal;rounded=0;fontColor=#000000;endArrow=none;endFill=0;strokeWidth=8;strokeColor=#23445D;" edge="1" parent="1" source="8cmh6g_K8rKezBwlUr-a-235" target="8cmh6g_K8rKezBwlUr-a-237">
          <mxGeometry width="100" height="100" relative="1" as="geometry">
            <mxPoint x="1710" y="422.00000000000045" as="sourcePoint"/>
            <mxPoint x="1719.9999999999995" y="522" as="targetPoint"/>
            <Array as="points">
              <mxPoint x="1710" y="472"/>
            </Array>
          </mxGeometry>
        </mxCell>
        <mxCell id="8cmh6g_K8rKezBwlUr-a-248" value="" style="edgeStyle=elbowEdgeStyle;elbow=horizontal;rounded=0;fontColor=#000000;endArrow=none;endFill=0;strokeWidth=8;strokeColor=#23445D;" edge="1" parent="1" source="8cmh6g_K8rKezBwlUr-a-235" target="8cmh6g_K8rKezBwlUr-a-238">
          <mxGeometry width="100" height="100" relative="1" as="geometry">
            <mxPoint x="1720" y="422" as="sourcePoint"/>
            <mxPoint x="1719.9999999999998" y="602" as="targetPoint"/>
            <Array as="points">
              <mxPoint x="1710" y="512"/>
            </Array>
          </mxGeometry>
        </mxCell>
        <mxCell id="8cmh6g_K8rKezBwlUr-a-249" value="" style="edgeStyle=elbowEdgeStyle;elbow=horizontal;rounded=0;fontColor=#000000;endArrow=none;endFill=0;strokeWidth=8;strokeColor=#23445D;" edge="1" parent="1" source="8cmh6g_K8rKezBwlUr-a-235">
          <mxGeometry width="100" height="100" relative="1" as="geometry">
            <mxPoint x="1720" y="422" as="sourcePoint"/>
            <mxPoint x="1729.9999999999995" y="842" as="targetPoint"/>
            <Array as="points">
              <mxPoint x="1710" y="642"/>
            </Array>
          </mxGeometry>
        </mxCell>
        <mxCell id="8cmh6g_K8rKezBwlUr-a-250" value="" style="edgeStyle=elbowEdgeStyle;elbow=horizontal;rounded=0;fontColor=#000000;endArrow=none;endFill=0;strokeWidth=8;strokeColor=#23445D;" edge="1" parent="1" source="8cmh6g_K8rKezBwlUr-a-235" target="8cmh6g_K8rKezBwlUr-a-240">
          <mxGeometry width="100" height="100" relative="1" as="geometry">
            <mxPoint x="1720" y="422" as="sourcePoint"/>
            <mxPoint x="1720" y="762" as="targetPoint"/>
            <Array as="points">
              <mxPoint x="1710" y="592"/>
            </Array>
          </mxGeometry>
        </mxCell>
        <mxCell id="8cmh6g_K8rKezBwlUr-a-251" value="" style="edgeStyle=elbowEdgeStyle;elbow=horizontal;rounded=0;fontColor=#000000;endArrow=none;endFill=0;strokeWidth=8;strokeColor=#23445D;" edge="1" parent="1" source="8cmh6g_K8rKezBwlUr-a-235" target="8cmh6g_K8rKezBwlUr-a-239">
          <mxGeometry width="100" height="100" relative="1" as="geometry">
            <mxPoint x="1720" y="422" as="sourcePoint"/>
            <mxPoint x="1719.9999999999998" y="682" as="targetPoint"/>
            <Array as="points">
              <mxPoint x="1710" y="562"/>
            </Array>
          </mxGeometry>
        </mxCell>
        <mxCell id="8cmh6g_K8rKezBwlUr-a-252" value="" style="edgeStyle=elbowEdgeStyle;elbow=horizontal;rounded=0;fontColor=#000000;endArrow=none;endFill=0;strokeWidth=8;strokeColor=#23445D;" edge="1" parent="1" source="8cmh6g_K8rKezBwlUr-a-236" target="8cmh6g_K8rKezBwlUr-a-242">
          <mxGeometry width="100" height="100" relative="1" as="geometry">
            <mxPoint x="1900" y="422.00000000000045" as="sourcePoint"/>
            <mxPoint x="1909.9999999999995" y="522" as="targetPoint"/>
            <Array as="points">
              <mxPoint x="1910" y="472"/>
            </Array>
          </mxGeometry>
        </mxCell>
        <mxCell id="8cmh6g_K8rKezBwlUr-a-253" value="" style="edgeStyle=elbowEdgeStyle;elbow=horizontal;rounded=0;fontColor=#000000;endArrow=none;endFill=0;strokeWidth=8;strokeColor=#23445D;" edge="1" parent="1" source="8cmh6g_K8rKezBwlUr-a-236" target="8cmh6g_K8rKezBwlUr-a-243">
          <mxGeometry width="100" height="100" relative="1" as="geometry">
            <mxPoint x="1910" y="422" as="sourcePoint"/>
            <mxPoint x="1909.9999999999998" y="602" as="targetPoint"/>
            <Array as="points">
              <mxPoint x="1910" y="512"/>
            </Array>
          </mxGeometry>
        </mxCell>
        <mxCell id="8cmh6g_K8rKezBwlUr-a-254" value="" style="edgeStyle=elbowEdgeStyle;elbow=horizontal;rounded=0;fontColor=#000000;endArrow=none;endFill=0;strokeWidth=8;strokeColor=#23445D;" edge="1" parent="1" source="8cmh6g_K8rKezBwlUr-a-236">
          <mxGeometry width="100" height="100" relative="1" as="geometry">
            <mxPoint x="1910" y="422" as="sourcePoint"/>
            <mxPoint x="1930" y="842" as="targetPoint"/>
            <Array as="points">
              <mxPoint x="1910" y="632"/>
            </Array>
          </mxGeometry>
        </mxCell>
        <mxCell id="8cmh6g_K8rKezBwlUr-a-255" value="" style="edgeStyle=elbowEdgeStyle;elbow=horizontal;rounded=0;fontColor=#000000;endArrow=none;endFill=0;strokeWidth=8;strokeColor=#23445D;" edge="1" parent="1" source="8cmh6g_K8rKezBwlUr-a-236" target="8cmh6g_K8rKezBwlUr-a-245">
          <mxGeometry width="100" height="100" relative="1" as="geometry">
            <mxPoint x="1910" y="422" as="sourcePoint"/>
            <mxPoint x="1910" y="762" as="targetPoint"/>
            <Array as="points">
              <mxPoint x="1910" y="592"/>
            </Array>
          </mxGeometry>
        </mxCell>
        <mxCell id="8cmh6g_K8rKezBwlUr-a-256" value="" style="edgeStyle=elbowEdgeStyle;elbow=horizontal;rounded=0;fontColor=#000000;endArrow=none;endFill=0;strokeWidth=8;strokeColor=#23445D;" edge="1" parent="1" source="8cmh6g_K8rKezBwlUr-a-236" target="8cmh6g_K8rKezBwlUr-a-244">
          <mxGeometry width="100" height="100" relative="1" as="geometry">
            <mxPoint x="1910" y="422" as="sourcePoint"/>
            <mxPoint x="1909.9999999999998" y="682" as="targetPoint"/>
            <Array as="points">
              <mxPoint x="1910" y="562"/>
            </Array>
          </mxGeometry>
        </mxCell>
        <mxCell id="8cmh6g_K8rKezBwlUr-a-257" value="" style="edgeStyle=elbowEdgeStyle;elbow=vertical;rounded=0;fontColor=#000000;endArrow=none;endFill=0;strokeWidth=8;strokeColor=#23445D;exitX=0.5;exitY=1;exitDx=0;exitDy=0;" edge="1" parent="1" target="8cmh6g_K8rKezBwlUr-a-235" source="8cmh6g_K8rKezBwlUr-a-234">
          <mxGeometry width="100" height="100" relative="1" as="geometry">
            <mxPoint x="1890" y="321.9999999999998" as="sourcePoint"/>
            <mxPoint x="1800" y="262" as="targetPoint"/>
          </mxGeometry>
        </mxCell>
        <mxCell id="8cmh6g_K8rKezBwlUr-a-258" value="" style="edgeStyle=elbowEdgeStyle;elbow=vertical;rounded=0;fontColor=#000000;endArrow=none;endFill=0;strokeWidth=8;strokeColor=#23445D;exitX=0.5;exitY=1;exitDx=0;exitDy=0;" edge="1" parent="1" target="8cmh6g_K8rKezBwlUr-a-236" source="8cmh6g_K8rKezBwlUr-a-234">
          <mxGeometry width="100" height="100" relative="1" as="geometry">
            <mxPoint x="1890" y="321.9999999999998" as="sourcePoint"/>
            <mxPoint x="2050" y="272" as="targetPoint"/>
          </mxGeometry>
        </mxCell>
        <mxCell id="8cmh6g_K8rKezBwlUr-a-259" value="kit" style="whiteSpace=wrap;rounded=1;fillColor=#F2931E;strokeColor=none;shadow=1;fontColor=#FFFFFF;fontStyle=1;fontSize=14" vertex="1" parent="1">
          <mxGeometry x="1800" y="181.9999999999998" width="140" height="58" as="geometry"/>
        </mxCell>
        <mxCell id="8cmh6g_K8rKezBwlUr-a-260" value="" style="edgeStyle=elbowEdgeStyle;elbow=vertical;rounded=0;fontColor=#000000;endArrow=none;endFill=0;strokeWidth=8;strokeColor=#23445D;exitX=0.5;exitY=1;exitDx=0;exitDy=0;" edge="1" parent="1" source="8cmh6g_K8rKezBwlUr-a-259">
          <mxGeometry width="100" height="100" relative="1" as="geometry">
            <mxPoint x="1560" y="102" as="sourcePoint"/>
            <mxPoint x="1870" y="260" as="targetPoint"/>
          </mxGeometry>
        </mxCell>
        <mxCell id="8cmh6g_K8rKezBwlUr-a-261" value="" style="edgeStyle=elbowEdgeStyle;elbow=vertical;rounded=0;fontColor=#000000;endArrow=none;endFill=0;strokeWidth=8;strokeColor=#23445D;" edge="1" parent="1" target="8cmh6g_K8rKezBwlUr-a-259">
          <mxGeometry width="100" height="100" relative="1" as="geometry">
            <mxPoint x="1390" y="120" as="sourcePoint"/>
            <mxPoint x="1890" y="155" as="targetPoint"/>
            <Array as="points">
              <mxPoint x="1560" y="145"/>
            </Array>
          </mxGeometry>
        </mxCell>
      </root>
    </mxGraphModel>
  </diagram>
</mxfile>
